<svg width="20" height="20" viewBox="0 0 20 20" fill="none" xmlns="http://www.w3.org/2000/svg">
<g id="dots-vertical">
<path id="Icon" d="M9.99998 4.16668L9.99998 4.17501M9.99998 10L9.99998 10.0083M9.99998 15.8333L9.99998 15.8417M9.99998 5.00001C9.53974 5.00001 9.16665 4.62691 9.16665 4.16668C9.16665 3.70644 9.53974 3.33334 9.99998 3.33334C10.4602 3.33334 10.8333 3.70644 10.8333 4.16668C10.8333 4.62691 10.4602 5.00001 9.99998 5.00001ZM9.99998 10.8333C9.53974 10.8333 9.16665 10.4602 9.16665 10C9.16665 9.53977 9.53974 9.16668 9.99998 9.16668C10.4602 9.16668 10.8333 9.53977 10.8333 10C10.8333 10.4602 10.4602 10.8333 9.99998 10.8333ZM9.99998 16.6667C9.53974 16.6667 9.16665 16.2936 9.16665 15.8333C9.16665 15.3731 9.53974 15 9.99998 15C10.4602 15 10.8333 15.3731 10.8333 15.8333C10.8333 16.2936 10.4602 16.6667 9.99998 16.6667Z" stroke="#545F71" stroke-width="2" stroke-linecap="round" stroke-linejoin="round"/>
</g>
</svg>
