<svg width="24" height="24" viewBox="0 0 24 24" fill="none" xmlns="http://www.w3.org/2000/svg">
<g clip-path="url(#clip0_1_27814)">
<path d="M16.3642 4.13578C16.6928 3.80722 16.8571 3.64294 17.0208 3.5335C17.6934 3.08409 18.5705 3.08409 19.2431 3.5335C19.4069 3.64294 19.5712 3.80722 19.8998 4.13578V4.13578C20.2283 4.46434 20.3926 4.62862 20.502 4.79241C20.9514 5.46501 20.9514 6.34209 20.502 7.01469C20.3926 7.17848 20.2283 7.34276 19.8998 7.67132L9.06615 18.5049C8.80161 18.7695 8.66934 18.9017 8.51584 19.0067C8.36234 19.1117 8.19112 19.1871 7.84868 19.3378L6.92942 19.7422C4.94288 20.6163 3.94961 21.0533 3.4659 20.5696C2.9822 20.0859 3.41923 19.0927 4.29331 17.1061L4.69778 16.1869C4.84846 15.8444 4.92379 15.6732 5.0288 15.5197C5.1338 15.3662 5.26607 15.2339 5.53062 14.9694L16.3642 4.13578Z" stroke="white" stroke-width="2" stroke-linecap="round"/>
<path d="M13.6214 6.84314L17.1569 10.3787" stroke="white" stroke-width="2"/>
</g>
<defs>
<clipPath id="clip0_1_27814">
<rect width="24" height="24" fill="white"/>
</clipPath>
</defs>
</svg>
